<svg xmlns="http://www.w3.org/2000/svg" xmlns:xlink="http://www.w3.org/1999/xlink" version="1.1" style="enable-background:new 0 0 512 512;" xml:space="preserve" width="512" height="512"><rect id="backgroundrect" width="100%" height="100%" x="0" y="0" fill="none" stroke="none"/>

















<g class="currentLayer" style=""><title>Layer 1</title><g id="svg_1" class="" fill-opacity="1" fill="#10B97B">
	<g id="svg_2" fill="#10B97B">
		<path d="M495.062,192.291c-10.731-14.57-26.493-24.091-44.383-26.806c-3.568-0.542-7.217-0.791-10.812-0.765H327.472V91.277    C327.472,40.946,286.525,0,236.195,0c-8.173,0-15.58,4.813-18.899,12.282l-94.127,211.784c-1.175,2.645-1.782,5.506-1.782,8.4    v258.849c0,11.423,9.26,20.682,20.682,20.682h265.324c0.215,0.002,0.429,0.003,0.643,0.003c16.068,0,31.622-5.711,43.876-16.128    c12.45-10.581,20.656-25.306,23.1-41.427L507.49,242.63C510.206,224.74,505.792,206.862,495.062,192.291z M466.599,236.392    l-32.478,211.818c-1.946,12.833-13.131,22.425-26.085,22.425c-0.097,0-0.199,0-0.296-0.002c-0.078,0-0.155-0.001-0.233-0.001    H162.752V236.856l86.156-193.851c21.385,5.636,37.2,25.141,37.2,48.272v94.127c0,11.422,9.259,20.682,20.682,20.682h133.188    c0.078,0,0.156,0,0.234-0.001c1.419-0.013,2.853,0.084,4.259,0.297c6.967,1.057,13.105,4.765,17.284,10.439    C465.934,222.495,467.652,229.456,466.599,236.392z" id="svg_3" fill="#10B97B"/>
	</g>
</g><g class="" id="svg_22" fill-opacity="1" fill="#10B97B">
	<g id="svg_24" fill="#10B97B">
		<path d="M495.6467952961922,191.70620470380783 c-10.731,-14.57 -26.493,-24.091 -44.383,-26.806 c-3.568,-0.542 -7.217,-0.791 -10.812,-0.7650000000000001 H328.05679529619215 V90.69220470380783 C328.05679529619215,40.36120470380783 287.10979529619215,-0.5847952961921692 236.77979529619216,-0.5847952961921692 c-8.173,0 -15.58,4.813 -18.899,12.282 l-94.127,211.784 c-1.175,2.645 -1.782,5.506 -1.782,8.4 v258.849 c0,11.423 9.26,20.682 20.682,20.682 h265.324 c0.21500000000000002,0.0020000000000000005 0.42900000000000005,0.003000000000000001 0.6430000000000001,0.003000000000000001 c16.068,0 31.622,-5.711 43.876,-16.128 c12.45,-10.581 20.656,-25.306 23.1,-41.427 L508.0747952961922,242.04520470380783 C510.7907952961922,224.15520470380784 506.37679529619214,206.27720470380783 495.6467952961922,191.70620470380783 zM467.18379529619216,235.80720470380783 l-32.478,211.818 c-1.9460000000000002,12.833 -13.131,22.425 -26.085,22.425 c-0.09700000000000003,0 -0.19900000000000004,0 -0.29600000000000004,-0.0020000000000000005 c-0.07800000000000001,0 -0.15500000000000003,-0.0010000000000000002 -0.233,-0.0010000000000000002 H163.33679529619218 V236.27120470380783 l86.156,-193.851 c21.385,5.636 37.2,25.141 37.2,48.272 v94.127 c0,11.422 9.259,20.682 20.682,20.682 h133.188 c0.07800000000000001,0 0.15600000000000003,0 0.234,-0.0010000000000000002 c1.419,-0.013000000000000003 2.853,0.08400000000000002 4.259,0.29700000000000004 c6.9670000000000005,1.057 13.105,4.765000000000001 17.284,10.439 C466.5187952961922,221.91020470380784 468.23679529619216,228.87120470380782 467.18379529619216,235.80720470380783 z" id="svg_3" fill="#10B97B"/>
	</g>
</g><g id="svg_4" class="" fill-opacity="1" fill="#10B97B">
	<g id="svg_5" fill="#10B97B">
		<path d="M142.069,470.633H71.474c-14.546,0-26.381-11.835-26.381-26.381V279.531c0-14.547,11.835-26.381,26.381-26.381h70.595    c11.422,0,20.682-9.26,20.682-20.682c0-11.422-9.26-20.682-20.682-20.682H71.474c-37.355,0-67.746,30.391-67.746,67.746v164.721    c0,37.355,30.391,67.746,67.746,67.746h70.595c11.423,0,20.682-9.259,20.682-20.682    C162.751,479.892,153.491,470.633,142.069,470.633z" id="svg_6" fill="#10B97B"/>
	</g>
</g><g class="" id="svg_26" fill-opacity="1" fill="#10B97B">
	<g id="svg_28" fill="#10B97B">
		<path d="M142.069,470.633H71.474c-14.546,0-26.381-11.835-26.381-26.381V279.531c0-14.547,11.835-26.381,26.381-26.381h70.595    c11.422,0,20.682-9.26,20.682-20.682c0-11.422-9.26-20.682-20.682-20.682H71.474c-37.355,0-67.746,30.391-67.746,67.746v164.721    c0,37.355,30.391,67.746,67.746,67.746h70.595c11.423,0,20.682-9.259,20.682-20.682    C162.751,479.892,153.491,470.633,142.069,470.633z" id="svg_6" fill="#10B97B"/>
	</g>
</g><g id="svg_7">
</g><g id="svg_8">
</g><g id="svg_9">
</g><g id="svg_10">
</g><g id="svg_11">
</g><g id="svg_12">
</g><g id="svg_13">
</g><g id="svg_14">
</g><g id="svg_15">
</g><g id="svg_16">
</g><g id="svg_17">
</g><g id="svg_18">
</g><g id="svg_19">
</g><g id="svg_20">
</g><g id="svg_21">
</g></g></svg>