<svg width="18" height="16" viewBox="0 0 18 16" fill="none" xmlns="http://www.w3.org/2000/svg">
<path d="M8.42798 0.479491C8.53584 0.261646 8.75795 0.123535 9.00072 0.123535C9.24348 0.123535 9.46595 0.261646 9.57345 0.479491L11.6277 4.6424C11.7206 4.8307 11.9007 4.96134 12.1089 4.99159L16.7029 5.65901C16.9439 5.6939 17.1432 5.86262 17.2183 6.09363C17.2934 6.32465 17.2308 6.5788 17.0567 6.74824L13.7328 9.98886C13.5822 10.1355 13.5135 10.347 13.5488 10.5541L14.3333 15.1299C14.3739 15.3699 14.276 15.6119 14.0788 15.755C13.8819 15.8974 13.6217 15.9162 13.406 15.8038L9.29687 13.6431C9.11106 13.5452 8.88859 13.5452 8.70243 13.6431L4.59327 15.8034C4.37827 15.9162 4.11735 15.8977 3.92051 15.755C3.72366 15.6123 3.62542 15.3699 3.66635 15.1299L4.45088 10.5541C4.48648 10.347 4.41742 10.1355 4.26685 9.98886L0.942933 6.74824C0.76887 6.57845 0.706222 6.32465 0.781329 6.09363C0.856436 5.86262 1.05613 5.6939 1.29711 5.65901L5.89179 4.99159C6.09967 4.96134 6.27979 4.8307 6.37269 4.64204L8.42798 0.479491Z" fill="#FABD48"/>
</svg>
